<svg width="20" height="20" viewBox="0 0 20 20" fill="none" xmlns="http://www.w3.org/2000/svg">
<path d="M12.3022 10.0439L19.1321 3.23584C19.4312 2.937 19.5992 2.5317 19.5992 2.10909C19.5992 1.68648 19.4312 1.28117 19.1321 0.98234C18.833 0.683507 18.4273 0.515625 18.0044 0.515625C17.5814 0.515625 17.1757 0.683507 16.8766 0.98234L10.0627 7.80631L3.24871 0.98234C2.94962 0.683507 2.54396 0.515625 2.12099 0.515625C1.69801 0.515625 1.29236 0.683507 0.993265 0.98234C0.694175 1.28117 0.526148 1.68648 0.526148 2.10909C0.526148 2.5317 0.694175 2.937 0.993265 3.23584L7.82312 10.0439L0.993265 16.852C0.844393 16.9996 0.72623 17.1751 0.645592 17.3685C0.564954 17.5619 0.523438 17.7693 0.523438 17.9788C0.523438 18.1883 0.564954 18.3957 0.645592 18.5891C0.72623 18.7825 0.844393 18.958 0.993265 19.1055C1.14092 19.2543 1.31659 19.3723 1.51015 19.4529C1.7037 19.5335 1.91131 19.575 2.12099 19.575C2.33066 19.575 2.53827 19.5335 2.73182 19.4529C2.92538 19.3723 3.10105 19.2543 3.24871 19.1055L10.0627 12.2816L16.8766 19.1055C17.0243 19.2543 17.2 19.3723 17.3935 19.4529C17.5871 19.5335 17.7947 19.575 18.0044 19.575C18.214 19.575 18.4217 19.5335 18.6152 19.4529C18.8088 19.3723 18.9844 19.2543 19.1321 19.1055C19.281 18.958 19.3991 18.7825 19.4798 18.5891C19.5604 18.3957 19.6019 18.1883 19.6019 17.9788C19.6019 17.7693 19.5604 17.5619 19.4798 17.3685C19.3991 17.1751 19.281 16.9996 19.1321 16.852L12.3022 10.0439Z" fill="red"/>
</svg>
